<?xml version="1.0" encoding="UTF-8"?>
<svg xmlns="http://www.w3.org/2000/svg" xmlns:xlink="http://www.w3.org/1999/xlink" width="100px" height="67px" viewBox="0 0 100 67" version="1.1">
<g id="surface1">
<path style=" stroke:none;fill-rule:evenodd;fill:rgb(0%,0%,0%);fill-opacity:1;" d="M 0 59.554688 L 100 59.554688 L 100 67 L 0 67 Z M 0 59.554688 "/>
<path style=" stroke:none;fill-rule:evenodd;fill:rgb(100%,100%,100%);fill-opacity:1;" d="M 0 52.109375 L 100 52.109375 L 100 59.554688 L 0 59.554688 Z M 0 52.109375 "/>
<path style=" stroke:none;fill-rule:evenodd;fill:rgb(0%,0%,0%);fill-opacity:1;" d="M 0 44.667969 L 100 44.667969 L 100 52.109375 L 0 52.109375 Z M 0 44.667969 "/>
<path style=" stroke:none;fill-rule:evenodd;fill:rgb(100%,100%,100%);fill-opacity:1;" d="M 0 37.222656 L 100 37.222656 L 100 44.667969 L 0 44.667969 Z M 0 37.222656 "/>
<path style=" stroke:none;fill-rule:evenodd;fill:rgb(0%,0%,0%);fill-opacity:1;" d="M 0 29.777344 L 100 29.777344 L 100 37.222656 L 0 37.222656 Z M 0 29.777344 "/>
<path style=" stroke:none;fill-rule:evenodd;fill:rgb(100%,100%,100%);fill-opacity:1;" d="M 0 22.371094 L 100 22.371094 L 100 29.816406 L 0 29.816406 Z M 0 22.371094 "/>
<path style=" stroke:none;fill-rule:evenodd;fill:rgb(0%,0%,0%);fill-opacity:1;" d="M 0 14.925781 L 100 14.925781 L 100 22.371094 L 0 22.371094 Z M 0 14.925781 "/>
<path style=" stroke:none;fill-rule:evenodd;fill:rgb(100%,100%,100%);fill-opacity:1;" d="M 0 7.480469 L 100 7.480469 L 100 14.925781 L 0 14.925781 Z M 0 7.480469 "/>
<path style=" stroke:none;fill-rule:evenodd;fill:rgb(0%,0%,0%);fill-opacity:1;" d="M 0 0 L 100 0 L 100 7.445312 L 0 7.445312 Z M 0 0 "/>
<path style=" stroke:none;fill-rule:nonzero;fill:rgb(100%,100%,100%);fill-opacity:1;" d="M 0 0 L 47.5 0 L 47.5 29.777344 L 0 29.777344 Z M 0 0 "/>
<path style="fill-rule:evenodd;fill:rgb(0%,0%,0%);fill-opacity:1;stroke-width:3;stroke-linecap:round;stroke-linejoin:round;stroke:rgb(0%,0%,0%);stroke-opacity:1;stroke-miterlimit:4;" d="M 377.13267 135.589006 C 363.07017 205.784903 336.702982 255.341807 308.226419 291.022778 C 320.062357 287.524643 333.421732 277.380053 346.312357 268.518113 C 338.460795 286.941621 330.492044 302.916434 322.640482 319.124457 C 327.327982 317.37539 342.327982 301.050763 362.60142 277.03024 C 365.765483 310.029308 370.10142 347.226137 376.546733 369.614197 C 381.585796 347.342741 385.452983 310.262517 389.437358 276.330613 C 401.742046 291.489195 413.577984 306.880987 430.218609 319.940689 L 406.898296 267.585277 C 418.968609 275.9808 432.210797 287.058225 444.984234 291.839009 C 414.749859 254.292366 389.320171 205.784903 377.13267 135.589006 Z M 377.13267 135.589006 " transform="matrix(0.0333333,0,0,0.0335,-6.192183,-0.456294)"/>
<path style="fill-rule:evenodd;fill:rgb(0%,0%,0%);fill-opacity:1;stroke-width:3;stroke-linecap:round;stroke-linejoin:round;stroke:rgb(0%,0%,0%);stroke-opacity:1;stroke-miterlimit:4;" d="M 319.710794 139.670163 C 318.421732 135.589006 300.140481 148.648708 290.179544 121.363259 C 314.085794 148.881916 338.929545 92.212139 358.968608 130.2252 C 365.179545 145.966804 337.992045 173.135648 319.710794 139.670163 Z M 319.710794 139.670163 " transform="matrix(0.0333333,0,0,0.0335,-6.192183,-0.456294)"/>
<path style="fill-rule:evenodd;fill:rgb(0%,0%,0%);fill-opacity:1;stroke-width:3;stroke-linecap:round;stroke-linejoin:round;stroke:rgb(0%,0%,0%);stroke-opacity:1;stroke-miterlimit:4;" d="M 431.742047 139.320349 C 433.031109 135.239192 451.195172 148.298894 461.273297 121.013446 C 437.367047 148.532103 412.523296 91.862326 392.484233 129.875386 C 386.273296 145.616991 413.343609 172.785835 431.742047 139.320349 Z M 431.742047 139.320349 " transform="matrix(0.0333333,0,0,0.0335,-6.192183,-0.456294)"/>
<path style="fill-rule:evenodd;fill:rgb(0%,0%,0%);fill-opacity:1;stroke-width:3;stroke-linecap:round;stroke-linejoin:round;stroke:rgb(0%,0%,0%);stroke-opacity:1;stroke-miterlimit:4;" d="M 383.343608 79.385646 C 379.710795 77.170161 396.351421 62.244788 371.859233 46.503183 C 393.538921 75.887512 332.952982 87.781169 365.648295 115.64964 C 379.593608 125.094603 412.054546 104.572214 383.343608 79.385646 Z M 383.343608 79.385646 " transform="matrix(0.0333333,0,0,0.0335,-6.192183,-0.456294)"/>
<path style="fill-rule:evenodd;fill:rgb(0%,0%,0%);fill-opacity:1;stroke-width:3;stroke-linecap:round;stroke-linejoin:round;stroke:rgb(0%,0%,0%);stroke-opacity:1;stroke-miterlimit:4;" d="M 377.166982 135.589006 C 362.987256 205.784903 336.737184 255.341807 308.143356 291.022778 C 320.096514 287.524643 333.455925 277.380053 346.346585 268.518113 C 338.377814 286.941621 330.52623 302.916434 322.674646 319.124457 C 327.362159 317.37539 342.245012 301.050763 362.635692 277.03024 C 365.799763 310.029308 370.135713 347.226137 376.463855 369.614197 C 381.620119 347.342741 385.370129 310.262517 389.471703 276.330613 C 401.776424 291.489195 413.612393 306.880987 430.135876 319.940689 L 406.932688 267.585277 C 418.885845 275.9808 432.245257 287.058225 444.901541 291.839009 C 414.784272 254.292366 389.354515 205.784903 377.166982 135.589006 Z M 377.166982 135.589006 " transform="matrix(0.0333332,0,0,0.0335,5.419989,-0.456294)"/>
<path style="fill-rule:evenodd;fill:rgb(0%,0%,0%);fill-opacity:1;stroke-width:3;stroke-linecap:round;stroke-linejoin:round;stroke:rgb(0%,0%,0%);stroke-opacity:1;stroke-miterlimit:4;" d="M 319.744951 139.670163 C 318.455885 135.589006 300.174585 148.648708 290.096432 121.363259 C 314.119935 148.881916 338.963753 92.212139 359.00287 130.2252 C 365.096636 145.966804 338.02625 173.135648 319.744951 139.670163 Z M 319.744951 139.670163 " transform="matrix(0.0333332,0,0,0.0335,5.419989,-0.456294)"/>
<path style="fill-rule:evenodd;fill:rgb(0%,0%,0%);fill-opacity:1;stroke-width:3;stroke-linecap:round;stroke-linejoin:round;stroke:rgb(0%,0%,0%);stroke-opacity:1;stroke-miterlimit:4;" d="M 431.659317 139.320349 C 433.065571 135.239192 451.229683 148.298894 461.307836 121.013446 C 437.284333 148.532103 412.557703 91.862326 392.518586 129.875386 C 386.307632 145.616991 413.378018 172.785835 431.659317 139.320349 Z M 431.659317 139.320349 " transform="matrix(0.0333332,0,0,0.0335,5.419989,-0.456294)"/>
<path style="fill-rule:evenodd;fill:rgb(0%,0%,0%);fill-opacity:1;stroke-width:3;stroke-linecap:round;stroke-linejoin:round;stroke:rgb(0%,0%,0%);stroke-opacity:1;stroke-miterlimit:4;" d="M 383.377936 79.385646 C 379.627926 77.170161 396.385784 62.244788 371.89353 46.503183 C 393.573276 75.887512 332.869986 87.781169 365.565388 115.64964 C 379.510738 125.094603 411.971764 104.572214 383.377936 79.385646 Z M 383.377936 79.385646 " transform="matrix(0.0333332,0,0,0.0335,5.419989,-0.456294)"/>
<path style="fill-rule:evenodd;fill:rgb(0%,0%,0%);fill-opacity:1;stroke-width:3;stroke-linecap:round;stroke-linejoin:round;stroke:rgb(0%,0%,0%);stroke-opacity:1;stroke-miterlimit:4;" d="M 377.084584 135.589006 C 363.022046 205.784903 336.771974 255.341807 308.178146 291.022778 C 320.014116 287.524643 333.373528 277.380053 346.264188 268.518113 C 338.412604 286.941621 330.56102 302.916434 322.592248 319.124457 C 327.396949 317.37539 342.279802 301.050763 362.553294 277.03024 C 365.834553 310.029308 370.053315 347.226137 376.498645 369.614197 C 381.654909 347.342741 385.404919 310.262517 389.506493 276.330613 C 401.694026 291.489195 413.647183 306.880987 430.170666 319.940689 L 406.967478 267.585277 C 418.920635 275.9808 432.162859 287.058225 444.936331 291.839009 C 414.701874 254.292366 389.272117 205.784903 377.084584 135.589006 Z M 377.084584 135.589006 " transform="matrix(0.0333332,0,0,0.0335,17.032111,-0.456294)"/>
<path style="fill-rule:evenodd;fill:rgb(0%,0%,0%);fill-opacity:1;stroke-width:3;stroke-linecap:round;stroke-linejoin:round;stroke:rgb(0%,0%,0%);stroke-opacity:1;stroke-miterlimit:4;" d="M 319.779741 139.670163 C 318.373487 135.589006 300.209375 148.648708 290.131222 121.363259 C 314.154725 148.881916 338.881355 92.212139 358.920472 130.2252 C 365.131426 145.966804 338.06104 173.135648 319.779741 139.670163 Z M 319.779741 139.670163 " transform="matrix(0.0333332,0,0,0.0335,17.032111,-0.456294)"/>
<path style="fill-rule:evenodd;fill:rgb(0%,0%,0%);fill-opacity:1;stroke-width:3;stroke-linecap:round;stroke-linejoin:round;stroke:rgb(0%,0%,0%);stroke-opacity:1;stroke-miterlimit:4;" d="M 431.694107 139.320349 C 432.983173 135.239192 451.264473 148.298894 461.342626 121.013446 C 437.319123 148.532103 412.475305 91.862326 392.436188 129.875386 C 386.342422 145.616991 413.412808 172.785835 431.694107 139.320349 Z M 431.694107 139.320349 " transform="matrix(0.0333332,0,0,0.0335,17.032111,-0.456294)"/>
<path style="fill-rule:evenodd;fill:rgb(0%,0%,0%);fill-opacity:1;stroke-width:3;stroke-linecap:round;stroke-linejoin:round;stroke:rgb(0%,0%,0%);stroke-opacity:1;stroke-miterlimit:4;" d="M 383.412726 79.385646 C 379.662716 77.170161 396.420574 62.244788 371.92832 46.503183 C 393.608066 75.887512 332.904776 87.781169 365.600178 115.64964 C 379.545528 125.094603 412.006554 104.572214 383.412726 79.385646 Z M 383.412726 79.385646 " transform="matrix(0.0333332,0,0,0.0335,17.032111,-0.456294)"/>
<path style="fill-rule:evenodd;fill:rgb(0%,0%,0%);fill-opacity:1;stroke-width:3;stroke-linecap:round;stroke-linejoin:round;stroke:rgb(0%,0%,0%);stroke-opacity:1;stroke-miterlimit:4;" d="M 377.119105 135.589006 C 363.056567 205.784903 336.689308 255.341807 308.212668 291.022778 C 320.048638 287.524643 333.408049 277.380053 346.298709 268.518113 C 338.447125 286.941621 330.478354 302.916434 322.62677 319.124457 C 327.314282 317.37539 342.314323 301.050763 362.587816 277.03024 C 365.751887 310.029308 370.087836 347.226137 376.533166 369.614197 C 381.68943 347.342741 385.439441 310.262517 389.423826 276.330613 C 401.728547 291.489195 413.564517 306.880987 430.205187 319.940689 L 406.884811 267.585277 C 418.955157 275.9808 432.19738 287.058225 444.970852 291.839009 C 414.736395 254.292366 389.306639 205.784903 377.119105 135.589006 Z M 377.119105 135.589006 " transform="matrix(0.0333332,0,0,0.0335,28.644241,-0.456294)"/>
<path style="fill-rule:evenodd;fill:rgb(0%,0%,0%);fill-opacity:1;stroke-width:3;stroke-linecap:round;stroke-linejoin:round;stroke:rgb(0%,0%,0%);stroke-opacity:1;stroke-miterlimit:4;" d="M 319.697074 139.670163 C 318.408008 135.589006 300.243896 148.648708 290.165744 121.363259 C 314.072059 148.881916 338.915877 92.212139 358.954994 130.2252 C 365.165948 145.966804 338.095562 173.135648 319.697074 139.670163 Z M 319.697074 139.670163 " transform="matrix(0.0333332,0,0,0.0335,28.644241,-0.456294)"/>
<path style="fill-rule:evenodd;fill:rgb(0%,0%,0%);fill-opacity:1;stroke-width:3;stroke-linecap:round;stroke-linejoin:round;stroke:rgb(0%,0%,0%);stroke-opacity:1;stroke-miterlimit:4;" d="M 431.728629 139.320349 C 433.017695 135.239192 451.298995 148.298894 461.259959 121.013446 C 437.353644 148.532103 412.509827 91.862326 392.47071 129.875386 C 386.259755 145.616991 413.447329 172.785835 431.728629 139.320349 Z M 431.728629 139.320349 " transform="matrix(0.0333332,0,0,0.0335,28.644241,-0.456294)"/>
<path style="fill-rule:evenodd;fill:rgb(0%,0%,0%);fill-opacity:1;stroke-width:3;stroke-linecap:round;stroke-linejoin:round;stroke:rgb(0%,0%,0%);stroke-opacity:1;stroke-miterlimit:4;" d="M 383.33006 79.385646 C 379.697237 77.170161 396.455096 62.244788 371.845654 46.503183 C 393.5254 75.887512 332.939298 87.781169 365.634699 115.64964 C 379.58005 125.094603 412.041075 104.572214 383.33006 79.385646 Z M 383.33006 79.385646 " transform="matrix(0.0333332,0,0,0.0335,28.644241,-0.456294)"/>
<path style="fill-rule:evenodd;fill:rgb(0%,0%,0%);fill-opacity:1;stroke-width:3;stroke-linecap:round;stroke-linejoin:round;stroke:rgb(0%,0%,0%);stroke-opacity:1;stroke-miterlimit:4;" d="M 377.13267 135.589046 C 363.07017 205.784943 336.702982 255.341847 308.226419 291.022818 C 320.062357 287.524683 333.421732 277.380093 346.312357 268.518153 C 338.460795 286.941661 330.492044 302.916474 322.640482 319.124497 C 327.327982 317.37543 342.327982 301.050803 362.60142 277.03028 C 365.765483 310.029348 370.10142 347.226177 376.546733 369.614237 C 381.585796 347.342781 385.452983 310.262557 389.437358 276.330653 C 401.742046 291.489235 413.577984 306.881027 430.218609 319.940729 L 406.898296 267.585317 C 418.968609 275.98084 432.210797 287.058265 444.984234 291.839049 C 414.749859 254.292406 389.320171 205.784943 377.13267 135.589046 Z M 377.13267 135.589046 " transform="matrix(0.0333333,0,0,0.0335,-6.192183,16.293705)"/>
<path style="fill-rule:evenodd;fill:rgb(0%,0%,0%);fill-opacity:1;stroke-width:3;stroke-linecap:round;stroke-linejoin:round;stroke:rgb(0%,0%,0%);stroke-opacity:1;stroke-miterlimit:4;" d="M 319.710794 139.670203 C 318.421732 135.589046 300.140481 148.648748 290.179544 121.363299 C 314.085794 148.881956 338.929545 92.212179 358.968608 130.22524 C 365.179545 145.966844 337.992045 173.135688 319.710794 139.670203 Z M 319.710794 139.670203 " transform="matrix(0.0333333,0,0,0.0335,-6.192183,16.293705)"/>
<path style="fill-rule:evenodd;fill:rgb(0%,0%,0%);fill-opacity:1;stroke-width:3;stroke-linecap:round;stroke-linejoin:round;stroke:rgb(0%,0%,0%);stroke-opacity:1;stroke-miterlimit:4;" d="M 431.742047 139.320389 C 433.031109 135.239232 451.195172 148.298934 461.273297 121.013486 C 437.367047 148.532143 412.523296 91.862366 392.484233 129.875426 C 386.273296 145.617031 413.343609 172.785875 431.742047 139.320389 Z M 431.742047 139.320389 " transform="matrix(0.0333333,0,0,0.0335,-6.192183,16.293705)"/>
<path style="fill-rule:evenodd;fill:rgb(0%,0%,0%);fill-opacity:1;stroke-width:3;stroke-linecap:round;stroke-linejoin:round;stroke:rgb(0%,0%,0%);stroke-opacity:1;stroke-miterlimit:4;" d="M 383.343608 79.385686 C 379.710795 77.170201 396.351421 62.244828 371.859233 46.503223 C 393.538921 75.887552 332.952982 87.781209 365.648295 115.64968 C 379.593608 125.094643 412.054546 104.572254 383.343608 79.385686 Z M 383.343608 79.385686 " transform="matrix(0.0333333,0,0,0.0335,-6.192183,16.293705)"/>
<path style="fill-rule:evenodd;fill:rgb(0%,0%,0%);fill-opacity:1;stroke-width:3;stroke-linecap:round;stroke-linejoin:round;stroke:rgb(0%,0%,0%);stroke-opacity:1;stroke-miterlimit:4;" d="M 377.166922 135.589046 C 362.987196 205.784943 336.737124 255.341847 308.143296 291.022818 C 320.096454 287.524683 333.455865 277.380093 346.346525 268.518153 C 338.377754 286.941661 330.52617 302.916474 322.674586 319.124497 C 327.362099 317.37543 342.244952 301.050803 362.635632 277.03028 C 365.799703 310.029348 370.135653 347.226177 376.463795 369.614237 C 381.620059 347.342781 385.370069 310.262557 389.471643 276.330653 C 401.776364 291.489235 413.612333 306.881027 430.135816 319.940729 L 406.932628 267.585317 C 418.885785 275.98084 432.245197 287.058265 444.901481 291.839049 C 414.784212 254.292406 389.354455 205.784943 377.166922 135.589046 Z M 377.166922 135.589046 " transform="matrix(0.0333332,0,0,0.0335,5.419991,16.293705)"/>
<path style="fill-rule:evenodd;fill:rgb(0%,0%,0%);fill-opacity:1;stroke-width:3;stroke-linecap:round;stroke-linejoin:round;stroke:rgb(0%,0%,0%);stroke-opacity:1;stroke-miterlimit:4;" d="M 319.744891 139.670203 C 318.455825 135.589046 300.174525 148.648748 290.096372 121.363299 C 314.119875 148.881956 338.963693 92.212179 359.00281 130.22524 C 365.096576 145.966844 338.02619 173.135688 319.744891 139.670203 Z M 319.744891 139.670203 " transform="matrix(0.0333332,0,0,0.0335,5.419991,16.293705)"/>
<path style="fill-rule:evenodd;fill:rgb(0%,0%,0%);fill-opacity:1;stroke-width:3;stroke-linecap:round;stroke-linejoin:round;stroke:rgb(0%,0%,0%);stroke-opacity:1;stroke-miterlimit:4;" d="M 431.659257 139.320389 C 433.065511 135.239232 451.229623 148.298934 461.307776 121.013486 C 437.284273 148.532143 412.557643 91.862366 392.518526 129.875426 C 386.307572 145.617031 413.377958 172.785875 431.659257 139.320389 Z M 431.659257 139.320389 " transform="matrix(0.0333332,0,0,0.0335,5.419991,16.293705)"/>
<path style="fill-rule:evenodd;fill:rgb(0%,0%,0%);fill-opacity:1;stroke-width:3;stroke-linecap:round;stroke-linejoin:round;stroke:rgb(0%,0%,0%);stroke-opacity:1;stroke-miterlimit:4;" d="M 383.377876 79.385686 C 379.627866 77.170201 396.385724 62.244828 371.89347 46.503223 C 393.573216 75.887552 332.869926 87.781209 365.565328 115.64968 C 379.510678 125.094643 411.971704 104.572254 383.377876 79.385686 Z M 383.377876 79.385686 " transform="matrix(0.0333332,0,0,0.0335,5.419991,16.293705)"/>
<path style="fill-rule:evenodd;fill:rgb(0%,0%,0%);fill-opacity:1;stroke-width:3;stroke-linecap:round;stroke-linejoin:round;stroke:rgb(0%,0%,0%);stroke-opacity:1;stroke-miterlimit:4;" d="M 377.084584 135.589046 C 363.022046 205.784943 336.771974 255.341847 308.178146 291.022818 C 320.014116 287.524683 333.373528 277.380093 346.264188 268.518153 C 338.412604 286.941661 330.56102 302.916474 322.592248 319.124497 C 327.396949 317.37543 342.279802 301.050803 362.553294 277.03028 C 365.834553 310.029348 370.053315 347.226177 376.498645 369.614237 C 381.654909 347.342781 385.404919 310.262557 389.506493 276.330653 C 401.694026 291.489235 413.647183 306.881027 430.170666 319.940729 L 406.967478 267.585317 C 418.920635 275.98084 432.162859 287.058265 444.936331 291.839049 C 414.701874 254.292406 389.272117 205.784943 377.084584 135.589046 Z M 377.084584 135.589046 " transform="matrix(0.0333332,0,0,0.0335,17.032111,16.293705)"/>
<path style="fill-rule:evenodd;fill:rgb(0%,0%,0%);fill-opacity:1;stroke-width:3;stroke-linecap:round;stroke-linejoin:round;stroke:rgb(0%,0%,0%);stroke-opacity:1;stroke-miterlimit:4;" d="M 319.779741 139.670203 C 318.373487 135.589046 300.209375 148.648748 290.131222 121.363299 C 314.154725 148.881956 338.881355 92.212179 358.920472 130.22524 C 365.131426 145.966844 338.06104 173.135688 319.779741 139.670203 Z M 319.779741 139.670203 " transform="matrix(0.0333332,0,0,0.0335,17.032111,16.293705)"/>
<path style="fill-rule:evenodd;fill:rgb(0%,0%,0%);fill-opacity:1;stroke-width:3;stroke-linecap:round;stroke-linejoin:round;stroke:rgb(0%,0%,0%);stroke-opacity:1;stroke-miterlimit:4;" d="M 431.694107 139.320389 C 432.983173 135.239232 451.264473 148.298934 461.342626 121.013486 C 437.319123 148.532143 412.475305 91.862366 392.436188 129.875426 C 386.342422 145.617031 413.412808 172.785875 431.694107 139.320389 Z M 431.694107 139.320389 " transform="matrix(0.0333332,0,0,0.0335,17.032111,16.293705)"/>
<path style="fill-rule:evenodd;fill:rgb(0%,0%,0%);fill-opacity:1;stroke-width:3;stroke-linecap:round;stroke-linejoin:round;stroke:rgb(0%,0%,0%);stroke-opacity:1;stroke-miterlimit:4;" d="M 383.412726 79.385686 C 379.662716 77.170201 396.420574 62.244828 371.92832 46.503223 C 393.608066 75.887552 332.904776 87.781209 365.600178 115.64968 C 379.545528 125.094643 412.006554 104.572254 383.412726 79.385686 Z M 383.412726 79.385686 " transform="matrix(0.0333332,0,0,0.0335,17.032111,16.293705)"/>
<path style="fill-rule:evenodd;fill:rgb(0%,0%,0%);fill-opacity:1;stroke-width:3;stroke-linecap:round;stroke-linejoin:round;stroke:rgb(0%,0%,0%);stroke-opacity:1;stroke-miterlimit:4;" d="M 377.119105 135.589046 C 363.056567 205.784943 336.689308 255.341847 308.212668 291.022818 C 320.048638 287.524683 333.408049 277.380093 346.298709 268.518153 C 338.447125 286.941661 330.478354 302.916474 322.62677 319.124497 C 327.314282 317.37543 342.314323 301.050803 362.587816 277.03028 C 365.751887 310.029348 370.087836 347.226177 376.533166 369.614237 C 381.68943 347.342781 385.439441 310.262557 389.423826 276.330653 C 401.728547 291.489235 413.564517 306.881027 430.205187 319.940729 L 406.884811 267.585317 C 418.955157 275.98084 432.19738 287.058265 444.970852 291.839049 C 414.736395 254.292406 389.306639 205.784943 377.119105 135.589046 Z M 377.119105 135.589046 " transform="matrix(0.0333332,0,0,0.0335,28.644241,16.293705)"/>
<path style="fill-rule:evenodd;fill:rgb(0%,0%,0%);fill-opacity:1;stroke-width:3;stroke-linecap:round;stroke-linejoin:round;stroke:rgb(0%,0%,0%);stroke-opacity:1;stroke-miterlimit:4;" d="M 319.697074 139.670203 C 318.408008 135.589046 300.243896 148.648748 290.165744 121.363299 C 314.072059 148.881956 338.915877 92.212179 358.954994 130.22524 C 365.165948 145.966844 338.095562 173.135688 319.697074 139.670203 Z M 319.697074 139.670203 " transform="matrix(0.0333332,0,0,0.0335,28.644241,16.293705)"/>
<path style="fill-rule:evenodd;fill:rgb(0%,0%,0%);fill-opacity:1;stroke-width:3;stroke-linecap:round;stroke-linejoin:round;stroke:rgb(0%,0%,0%);stroke-opacity:1;stroke-miterlimit:4;" d="M 431.728629 139.320389 C 433.017695 135.239232 451.298995 148.298934 461.259959 121.013486 C 437.353644 148.532143 412.509827 91.862366 392.47071 129.875426 C 386.259755 145.617031 413.447329 172.785875 431.728629 139.320389 Z M 431.728629 139.320389 " transform="matrix(0.0333332,0,0,0.0335,28.644241,16.293705)"/>
<path style="fill-rule:evenodd;fill:rgb(0%,0%,0%);fill-opacity:1;stroke-width:3;stroke-linecap:round;stroke-linejoin:round;stroke:rgb(0%,0%,0%);stroke-opacity:1;stroke-miterlimit:4;" d="M 383.33006 79.385686 C 379.697237 77.170201 396.455096 62.244828 371.845654 46.503223 C 393.5254 75.887552 332.939298 87.781209 365.634699 115.64968 C 379.58005 125.094643 412.041075 104.572254 383.33006 79.385686 Z M 383.33006 79.385686 " transform="matrix(0.0333332,0,0,0.0335,28.644241,16.293705)"/>
<path style="fill-rule:evenodd;fill:rgb(0%,0%,0%);fill-opacity:1;stroke-width:3;stroke-linecap:round;stroke-linejoin:round;stroke:rgb(0%,0%,0%);stroke-opacity:1;stroke-miterlimit:4;" d="M 377.145844 135.631273 C 363.083305 205.710565 336.716046 255.384074 308.239406 291.065044 C 320.075376 287.450306 333.434787 277.42232 346.325447 268.56038 C 338.356676 286.867283 330.505092 302.958701 322.653508 319.166724 C 327.341021 317.417657 342.341061 301.09303 362.614554 277.072507 C 365.778625 310.071575 370.114574 347.268404 376.559905 369.656464 C 381.598981 347.268404 385.466179 310.304784 389.450565 276.256275 C 401.755286 291.531462 413.591255 306.923254 430.114738 319.866351 L 406.91155 267.627544 C 418.981895 276.023067 432.224118 287.100492 444.880403 291.764671 C 414.763133 254.334633 389.333377 205.710565 377.145844 135.631273 Z M 377.145844 135.631273 " transform="matrix(0.0333332,0,0,0.0335,22.901162,7.827446)"/>
<path style="fill-rule:evenodd;fill:rgb(0%,0%,0%);fill-opacity:1;stroke-width:3;stroke-linecap:round;stroke-linejoin:round;stroke:rgb(0%,0%,0%);stroke-opacity:1;stroke-miterlimit:4;" d="M 319.723812 139.712429 C 318.434746 135.631273 300.153447 148.690974 290.075294 121.288922 C 314.098797 148.924183 338.942615 92.254406 358.981732 130.267467 C 365.192686 145.892467 338.005112 173.061311 319.723812 139.712429 Z M 319.723812 139.712429 " transform="matrix(0.0333332,0,0,0.0335,22.901162,7.827446)"/>
<path style="fill-rule:evenodd;fill:rgb(0%,0%,0%);fill-opacity:1;stroke-width:3;stroke-linecap:round;stroke-linejoin:round;stroke:rgb(0%,0%,0%);stroke-opacity:1;stroke-miterlimit:4;" d="M 431.755367 139.362616 C 433.044433 135.281459 451.208545 148.341161 461.286697 120.939108 C 437.263195 148.57437 412.536565 91.904593 392.497448 129.917653 C 386.286493 145.542653 413.35688 172.711497 431.755367 139.362616 Z M 431.755367 139.362616 " transform="matrix(0.0333332,0,0,0.0335,22.901162,7.827446)"/>
<path style="fill-rule:evenodd;fill:rgb(0%,0%,0%);fill-opacity:1;stroke-width:3;stroke-linecap:round;stroke-linejoin:round;stroke:rgb(0%,0%,0%);stroke-opacity:1;stroke-miterlimit:4;" d="M 383.356798 79.427913 C 379.723976 77.212428 396.364646 62.287055 371.872392 46.428845 C 393.552138 75.929779 332.966036 87.706831 365.661437 115.575302 C 379.4896 125.020265 411.950626 104.497877 383.356798 79.427913 Z M 383.356798 79.427913 " transform="matrix(0.0333332,0,0,0.0335,22.901162,7.827446)"/>
<path style="fill-rule:evenodd;fill:rgb(0%,0%,0%);fill-opacity:1;stroke-width:3;stroke-linecap:round;stroke-linejoin:round;stroke:rgb(0%,0%,0%);stroke-opacity:1;stroke-miterlimit:4;" d="M 377.111054 135.630891 C 363.048516 205.710184 336.798444 255.383692 308.204616 291.064663 C 320.040586 287.449924 333.399997 277.421939 346.290658 268.559999 C 338.439074 286.866902 330.470302 302.95832 322.618718 319.166343 C 327.306231 317.417276 342.306272 301.092648 362.579764 277.072126 C 365.743835 310.071193 370.079785 347.268023 376.525115 369.656083 C 381.681379 347.268023 385.431389 310.304402 389.532963 276.255894 C 401.720496 291.531081 413.556465 306.922872 430.197136 319.86597 L 406.87676 267.627163 C 418.947105 276.022685 432.189329 287.100111 444.962801 291.76429 C 414.728344 254.334252 389.298587 205.710184 377.111054 135.630891 Z M 377.111054 135.630891 " transform="matrix(0.0333332,0,0,0.0335,11.230447,7.827459)"/>
<path style="fill-rule:evenodd;fill:rgb(0%,0%,0%);fill-opacity:1;stroke-width:3;stroke-linecap:round;stroke-linejoin:round;stroke:rgb(0%,0%,0%);stroke-opacity:1;stroke-miterlimit:4;" d="M 319.689023 139.712048 C 318.399957 135.630891 300.235845 148.690593 290.157692 121.28854 C 314.064007 148.923802 338.907825 92.254025 358.946942 130.267085 C 365.157896 145.892086 338.08751 173.060929 319.689023 139.712048 Z M 319.689023 139.712048 " transform="matrix(0.0333332,0,0,0.0335,11.230447,7.827459)"/>
<path style="fill-rule:evenodd;fill:rgb(0%,0%,0%);fill-opacity:1;stroke-width:3;stroke-linecap:round;stroke-linejoin:round;stroke:rgb(0%,0%,0%);stroke-opacity:1;stroke-miterlimit:4;" d="M 431.720577 139.362235 C 433.009643 135.281078 451.290943 148.34078 461.369096 120.938727 C 437.345593 148.573989 412.501775 91.904211 392.462658 129.917272 C 386.251704 145.542272 413.439278 172.711116 431.720577 139.362235 Z M 431.720577 139.362235 " transform="matrix(0.0333332,0,0,0.0335,11.230447,7.827459)"/>
<path style="fill-rule:evenodd;fill:rgb(0%,0%,0%);fill-opacity:1;stroke-width:3;stroke-linecap:round;stroke-linejoin:round;stroke:rgb(0%,0%,0%);stroke-opacity:1;stroke-miterlimit:4;" d="M 383.439196 79.427532 C 379.689186 77.212047 396.447044 62.286674 371.837602 46.428464 C 393.634536 75.929398 332.931246 87.70645 365.626648 115.574921 C 379.571998 125.019884 412.033024 104.497495 383.439196 79.427532 Z M 383.439196 79.427532 " transform="matrix(0.0333332,0,0,0.0335,11.230447,7.827459)"/>
<path style="fill-rule:evenodd;fill:rgb(0%,0%,0%);fill-opacity:1;stroke-width:3;stroke-linecap:round;stroke-linejoin:round;stroke:rgb(0%,0%,0%);stroke-opacity:1;stroke-miterlimit:4;" d="M 377.125984 135.630891 C 363.063446 205.710184 336.696187 255.383692 308.219547 291.064663 C 320.055517 287.449924 333.414928 277.421939 346.305588 268.559999 C 338.454004 286.866902 330.485233 302.95832 322.633649 319.166343 C 327.321161 317.417276 342.321202 301.092648 362.594695 277.072126 C 365.758766 310.071193 370.094715 347.268023 376.540045 369.656083 C 381.579122 347.268023 385.44632 310.304402 389.430705 276.255894 C 401.735426 291.531081 413.571396 306.922872 430.212066 319.86597 L 406.89169 267.627163 C 418.962036 276.022685 432.204259 287.100111 444.977731 291.76429 C 414.743274 254.334252 389.313518 205.710184 377.125984 135.630891 Z M 377.125984 135.630891 " transform="matrix(0.0333332,0,0,0.0335,-0.398957,7.827459)"/>
<path style="fill-rule:evenodd;fill:rgb(0%,0%,0%);fill-opacity:1;stroke-width:3;stroke-linecap:round;stroke-linejoin:round;stroke:rgb(0%,0%,0%);stroke-opacity:1;stroke-miterlimit:4;" d="M 319.703953 139.712048 C 318.414887 135.630891 300.133588 148.690593 290.172623 121.28854 C 314.078938 148.923802 338.922756 92.254025 358.961873 130.267085 C 365.172827 145.892086 337.985253 173.060929 319.703953 139.712048 Z M 319.703953 139.712048 " transform="matrix(0.0333332,0,0,0.0335,-0.398957,7.827459)"/>
<path style="fill-rule:evenodd;fill:rgb(0%,0%,0%);fill-opacity:1;stroke-width:3;stroke-linecap:round;stroke-linejoin:round;stroke:rgb(0%,0%,0%);stroke-opacity:1;stroke-miterlimit:4;" d="M 431.735508 139.362235 C 433.024574 135.281078 451.305874 148.34078 461.266838 120.938727 C 437.360523 148.573989 412.516706 91.904211 392.477589 129.917272 C 386.266634 145.542272 413.454208 172.711116 431.735508 139.362235 Z M 431.735508 139.362235 " transform="matrix(0.0333332,0,0,0.0335,-0.398957,7.827459)"/>
<path style="fill-rule:evenodd;fill:rgb(0%,0%,0%);fill-opacity:1;stroke-width:3;stroke-linecap:round;stroke-linejoin:round;stroke:rgb(0%,0%,0%);stroke-opacity:1;stroke-miterlimit:4;" d="M 383.336939 79.427532 C 379.704116 77.212047 396.344787 62.286674 371.852533 46.428464 C 393.532279 75.929398 332.946177 87.70645 365.641578 115.574921 C 379.586929 125.019884 412.047954 104.497495 383.336939 79.427532 Z M 383.336939 79.427532 " transform="matrix(0.0333332,0,0,0.0335,-0.398957,7.827459)"/>
</g>
</svg>
